<svg version="1.1" preserveAspectRatio="xMidYMid meet" xml:space="preserve" viewBox="0 0 32 32" xmlns="http://www.w3.org/2000/svg" xmlns:xlink="http://www.w3.org/1999/xlink" xmlns:a="http://ns.adobe.com/AdobeSVGViewerExtensions/3.0/" class="icon-primary">
<defs>
</defs>
<path class="some facebook" d="M16,0C7.163,0,0,7.164,0,16c0,8.837,7.163,16,16,16s16-7.163,16-16C32,7.164,24.836,0,16,0z M19.532,13.291
  l-0.184,2.394h-2.454V24h-3.101v-8.315H12.14v-2.394h1.654v-1.608c0-0.708,0.018-1.802,0.533-2.479C14.869,8.487,15.614,8,16.895,8
  c2.087,0,2.965,0.298,2.965,0.298l-0.414,2.451c0,0-0.689-0.2-1.332-0.2c-0.644,0-1.22,0.231-1.22,0.874v1.869H19.532z"></path>
</svg>
