<svg version="1.1" preserveAspectRatio="xMidYMid meet" xml:space="preserve" viewBox="0 0 32 32" xmlns="http://www.w3.org/2000/svg" xmlns:xlink="http://www.w3.org/1999/xlink" xmlns:a="http://ns.adobe.com/AdobeSVGViewerExtensions/3.0/" class="icon-primary">
<defs>
</defs>
<polygon class="some instagram" points="22.15,12.555 22.15,10.196 22.15,9.843 21.797,9.845 19.438,9.852 19.447,12.564  "></polygon>
<path class="some instagram" d="M16.002,18.815c1.553,0,2.816-1.263,2.816-2.815c0-0.614-0.199-1.18-0.533-1.643
c-0.512-0.709-1.344-1.174-2.283-1.174s-1.771,0.465-2.283,1.174c-0.333,0.463-0.533,1.029-0.533,1.643
C13.186,17.553,14.449,18.815,16.002,18.815z"></path>
<path class="some instagram" d="M16,0C7.162,0,0,7.164,0,16s7.162,16,16,16c8.837,0,16-7.164,16-16S24.837,0,16,0z M24.002,14.357v6.55
c0,1.705-1.388,3.092-3.093,3.092h-9.815c-1.705,0-3.092-1.387-3.092-3.092v-6.55v-3.265C8.002,9.387,9.389,8,11.094,8h9.815
c1.705,0,3.093,1.387,3.093,3.092V14.357z"></path>
<path class="some instagram" d="M20.377,16c0,2.413-1.963,4.375-4.375,4.375S11.627,18.413,11.627,16c0-0.581,0.116-1.135,0.322-1.643
H9.561v6.55c0,0.846,0.688,1.533,1.533,1.533h9.815c0.847,0,1.534-0.687,1.534-1.533v-6.55h-2.389
C20.26,14.865,20.377,15.419,20.377,16z"></path>
</svg>
