<svg version="1.1" class="mobile-menu-icon" xmlns="http://www.w3.org/2000/svg" xmlns:xlink="http://www.w3.org/1999/xlink" x="0px" y="0px"
	 viewBox="0 0 298.3 283.5" xml:space="preserve">
<g>
	<g>
		<path class="icon-path" d="M260.1,76.3h-222C17.1,76.3,0,59.2,0,38.2C0,17.1,17.1,0,38.2,0h222c21.1,0,38.2,17.1,38.2,38.2
			C298.3,59.2,281.2,76.3,260.1,76.3z"/>
	</g>
	<g>
		<path class="icon-path" d="M260.1,179.9h-222C17.1,179.9,0,162.8,0,141.7c0-21.1,17.1-38.2,38.2-38.2h222c21.1,0,38.2,17.1,38.2,38.2
			C298.3,162.8,281.2,179.9,260.1,179.9z"/>
	</g>
	<g>
		<path class="icon-path" d="M260.1,283.5h-222C17.1,283.5,0,266.4,0,245.3c0-21.1,17.1-38.2,38.2-38.2h222c21.1,0,38.2,17.1,38.2,38.2
			C298.3,266.4,281.2,283.5,260.1,283.5z"/>
	</g>
</g>
</svg>
