<svg version="1.1" id="search_icon" xmlns="http://www.w3.org/2000/svg" xmlns:xlink="http://www.w3.org/1999/xlink" x="0px" y="0px"
	 viewBox="0 0 283.4 283.5" xml:space="preserve">
<path class="search-path" fill="#55e8a9" d="M272.2,218l-62.5-62.5c18.5-40.5,11.1-90.1-22.2-123.4C166.7,11.4,139.2,0,109.8,0
	C80.5,0,52.9,11.4,32.1,32.2c-42.8,42.8-42.8,112.5,0,155.4c20.7,20.7,48.3,32.2,77.7,32.2c16,0,31.6-3.4,45.7-9.9l62.4,62.4
	c7.5,7.5,17.3,11.2,27.1,11.2c9.8,0,19.6-3.7,27.1-11.2C287.2,257.3,287.2,233,272.2,218z M86.3,133.3c-12.9-12.9-12.9-34,0-46.9
	c6.3-6.3,14.6-9.7,23.5-9.7c8.9,0,17.2,3.5,23.5,9.7c12.9,12.9,12.9,33.9,0.1,46.9c0,0-0.1,0.1-0.1,0.1c0,0-0.1,0.1-0.1,0.1
	c-6.3,6.2-14.6,9.6-23.4,9.6C100.9,143.1,92.6,139.6,86.3,133.3z"/>
</svg>
