<?xml version="1.0" encoding="utf-8"?>
<svg version="1.1"
   xmlns="http://www.w3.org/2000/svg" xmlns:xlink="http://www.w3.org/1999/xlink" xmlns:a="http://ns.adobe.com/AdobeSVGViewerExtensions/3.0/"
   xml:space="preserve" viewBox="0 0 34 34">
<defs>
  <style><![CDATA[
    .some { display: none; }
    .some:target { display: inline; }
  ]]></style>
</defs>
  <g class="some" id="facebook">
    <path fill="#ffffff" d="M16,0C7.163,0,0,7.164,0,16c0,8.837,7.163,16,16,16s16-7.163,16-16C32,7.164,24.836,0,16,0z M19.532,13.291
	l-0.184,2.394h-2.454V24h-3.101v-8.315H12.14v-2.394h1.654v-1.608c0-0.708,0.018-1.802,0.533-2.479C14.869,8.487,15.614,8,16.895,8
	c2.087,0,2.965,0.298,2.965,0.298l-0.414,2.451c0,0-0.689-0.2-1.332-0.2c-0.644,0-1.22,0.231-1.22,0.874v1.869H19.532z"></path>
  </g>
  <g class="some" id="twitter">
    <path fill="#ffffff" d="M16,0C7.164,0,0,7.164,0,16c0,8.837,7.164,16,16,16c8.837,0,16-7.163,16-16C32,7.164,24.837,0,16,0z
	 M22.373,13.511c0.006,0.14,0.009,0.283,0.009,0.425c0,4.346-3.306,9.355-9.355,9.355c-1.856,0-3.585-0.544-5.04-1.477
	c0.257,0.031,0.52,0.045,0.784,0.045c1.54,0,2.958-0.525,4.084-1.408c-1.439-0.025-2.653-0.977-3.071-2.282
	c0.2,0.039,0.406,0.059,0.618,0.059c0.301,0,0.591-0.039,0.866-0.116c-1.505-0.301-2.639-1.63-2.639-3.224v-0.041
	c0.445,0.245,0.952,0.394,1.49,0.411c-0.882-0.59-1.462-1.597-1.462-2.737c0-0.603,0.161-1.167,0.444-1.655
	c1.623,1.991,4.046,3.299,6.778,3.436c-0.058-0.24-0.085-0.491-0.085-0.749c0-1.815,1.472-3.288,3.287-3.288
	c0.946,0,1.802,0.399,2.399,1.038c0.751-0.147,1.454-0.42,2.09-0.797c-0.244,0.768-0.767,1.411-1.446,1.818
	c0.665-0.08,1.299-0.256,1.889-0.518C23.575,12.468,23.016,13.047,22.373,13.511z"></path>
  </g>
  <g class="some" id="flickr">
    <path fill="#ffffff" d="M16.001,0.001C7.164,0.001,0,7.164,0,16s7.164,15.999,16.001,15.999C24.836,31.999,32,24.836,32,16
	S24.836,0.001,16.001,0.001z M11.523,19.523C9.577,19.523,8,17.945,8,16c0-1.945,1.577-3.523,3.522-3.523
	c1.95,0,3.526,1.578,3.526,3.523C15.048,17.945,13.472,19.523,11.523,19.523z M20.477,19.523c-1.947,0-3.524-1.577-3.524-3.523
	s1.577-3.524,3.524-3.524C22.422,12.476,24,14.054,24,16S22.422,19.523,20.477,19.523z"></path>
  </g>
  <g class="some" id="instagram">
    <g>
      <polygon points="22.15,12.555 22.15,10.196 22.15,9.843 21.797,9.845 19.438,9.852 19.447,12.564 	"></polygon>
      <path d="M16.002,18.815c1.553,0,2.816-1.263,2.816-2.815c0-0.614-0.199-1.18-0.533-1.643
		c-0.512-0.709-1.344-1.174-2.283-1.174s-1.771,0.465-2.283,1.174c-0.333,0.463-0.533,1.029-0.533,1.643
		C13.186,17.553,14.449,18.815,16.002,18.815z"></path>
      <path d="M16,0C7.162,0,0,7.164,0,16s7.162,16,16,16c8.837,0,16-7.164,16-16S24.837,0,16,0z M24.002,14.357v6.55
		c0,1.705-1.388,3.092-3.093,3.092h-9.815c-1.705,0-3.092-1.387-3.092-3.092v-6.55v-3.265C8.002,9.387,9.389,8,11.094,8h9.815
		c1.705,0,3.093,1.387,3.093,3.092V14.357z"></path>
      <path d="M20.377,16c0,2.413-1.963,4.375-4.375,4.375S11.627,18.413,11.627,16c0-0.581,0.116-1.135,0.322-1.643
		H9.561v6.55c0,0.846,0.688,1.533,1.533,1.533h9.815c0.847,0,1.534-0.687,1.534-1.533v-6.55h-2.389
		C20.26,14.865,20.377,15.419,20.377,16z"></path>
    </g>
  </g>
  <g class="some" id="pinterest">
    <path d="M16,0C7.164,0,0,7.164,0,16c0,8.837,7.164,16,16,16c8.837,0,16-7.163,16-16C32,7.164,24.837,0,16,0z
	 M16,23.957c-0.788,0-1.548-0.115-2.267-0.328c0.303-0.479,0.636-1.098,0.805-1.713c0.098-0.356,0.563-2.199,0.563-2.199
	c0.278,0.53,1.09,0.997,1.954,0.997c2.572,0,4.317-2.344,4.317-5.482c0-2.372-2.01-4.584-5.065-4.584
	c-3.801,0-5.717,2.727-5.717,4.999c0,1.375,0.521,2.599,1.639,3.057c0.183,0.074,0.347,0.002,0.4-0.201
	c0.037-0.141,0.125-0.496,0.163-0.642c0.053-0.201,0.033-0.271-0.115-0.446c-0.322-0.381-0.527-0.872-0.527-1.569
	c0-2.021,1.512-3.83,3.938-3.83c2.147,0,3.328,1.312,3.328,3.065c0,2.307-1.021,4.253-2.537,4.253c-0.837,0-1.463-0.692-1.262-1.542
	c0.24-1.012,0.707-2.106,0.707-2.838c0-0.654-0.352-1.201-1.079-1.201c-0.855,0-1.543,0.885-1.543,2.071
	c0,0.755,0.255,1.266,0.255,1.266s-0.875,3.71-1.029,4.358c-0.143,0.608-0.162,1.279-0.139,1.838C9.97,22.048,8,19.233,8,15.958
	c0-4.419,3.583-8,8-8s8,3.581,8,8C24,20.376,20.418,23.957,16,23.957z"></path>
  </g>
  <g class="some" id="linkedin">
    <path d="M16,0C7.163,0,0,7.164,0,16s7.163,16,16,16c8.838,0,16-7.164,16-16S24.838,0,16,0z M11.522,22.691H8.403
	v-9.98h3.119V22.691z M9.883,11.463H9.86c-1.129,0-1.86-0.764-1.86-1.73C8,8.748,8.754,8,9.905,8c1.15,0,1.857,0.746,1.88,1.73
	C11.785,10.697,11.056,11.463,9.883,11.463z M24,22.691h-3.537v-5.164c0-1.353-0.552-2.275-1.77-2.275
	c-0.93,0-1.446,0.623-1.688,1.224c-0.09,0.216-0.075,0.515-0.075,0.816v5.399h-3.504c0,0,0.046-9.148,0-9.98h3.504v1.566
	c0.207-0.685,1.326-1.662,3.112-1.662c2.216,0,3.958,1.436,3.958,4.527V22.691z"></path>
  </g>
  <g class="some" id="google-plus">
    <g>
      <path d="M15.765,11.719c-0.22-1.677-1.434-3.021-2.71-3.06s-2.133,1.244-1.912,2.922
		c0.22,1.676,1.434,3.065,2.71,3.104C15.129,14.723,15.985,13.395,15.765,11.719z"></path>
      <path d="M16,0C7.164,0,0,7.164,0,16s7.164,16,16,16s16-7.164,16-16S24.837,0,16,0z M13.363,23.958
		c-2.751,0-5.073-1.119-5.073-2.909c0-1.817,2.118-3.57,4.87-3.57c0.299,0,0.574-0.008,0.859-0.008
		c-0.376-0.366-0.675-0.815-0.675-1.369c0-0.327,0.105-0.646,0.252-0.925c-0.149,0.01-0.302,0.013-0.459,0.013
		c-2.26,0-3.774-1.607-3.774-3.6c0-1.949,2.091-3.632,4.312-3.632h4.956l-1.109,0.801h-1.571c1.042,0.401,1.598,1.616,1.598,2.862
		c0,1.047-0.581,1.947-1.4,2.588c-0.799,0.624-0.951,0.885-0.951,1.418c0,0.453,0.855,1.224,1.304,1.541
		c1.31,0.925,1.733,1.785,1.733,3.22C18.233,22.178,16.5,23.958,13.363,23.958z M23.709,16.384H21.78v1.93h-1.552v-1.93h-1.929
		v-1.553h1.929v-1.929h1.552v1.929h1.929V16.384z"></path>
      <path d="M14.917,18.137c-0.375-0.121-0.79-0.193-1.233-0.197c-1.902-0.021-3.606,1.159-3.606,2.577
		c0,1.445,1.374,2.648,3.276,2.648c2.674,0,3.605-1.129,3.605-2.575c0-0.175-0.021-0.345-0.061-0.511
		C16.689,19.261,15.948,18.855,14.917,18.137z"></path>
    </g>
  </g>
</svg>
