<?xml version="1.0" encoding="utf-8"?>
<!-- Generator: Adobe Illustrator 14.0.0, SVG Export Plug-In  -->
<!DOCTYPE svg PUBLIC "-//W3C//DTD SVG 1.1//EN" "http://www.w3.org/Graphics/SVG/1.1/DTD/svg11.dtd" [
	<!ENTITY ns_flows "http://ns.adobe.com/Flows/1.0/">
]>
<svg version="1.1"
	 xmlns="http://www.w3.org/2000/svg" xmlns:xlink="http://www.w3.org/1999/xlink" xmlns:a="http://ns.adobe.com/AdobeSVGViewerExtensions/3.0/"
	 viewBox="-1.098 -2.73 276 151" enable-background="new -1.098 -2.73 276 151"
	 xml:space="preserve">
<defs>
</defs>
<path fill="#55e8a9" class="tge-logo" d="M244.362,88.396c-2.42,0-4.847-0.873-6.769-2.642c-4.063-3.739-4.327-10.065-0.587-14.129l19.196-20.863
	c3.737-4.063,10.063-4.328,14.13-0.588c4.063,3.74,4.327,10.066,0.587,14.13l-19.196,20.863
	C249.753,87.31,247.062,88.396,244.362,88.396L244.362,88.396z"/>
<path fill="#55e8a9" class="tge-logo" d="M211.371,66.567c-1.697,0-3.418-0.433-4.993-1.343c-4.782-2.763-6.419-8.879-3.655-13.662l14.263-24.682
	c2.763-4.781,8.879-6.418,13.661-3.655c4.782,2.763,6.419,8.879,3.655,13.662l-14.263,24.682
	C218.187,64.775,214.826,66.567,211.371,66.567L211.371,66.567z"/>
<path fill="#55e8a9" class="tge-logo" d="M175.102,52.867c-0.848,0-1.708-0.108-2.565-0.335c-5.34-1.413-8.521-6.887-7.108-12.226l7.249-27.384
	c1.413-5.339,6.89-8.521,12.226-7.108c5.34,1.413,8.521,6.887,7.108,12.226l-7.249,27.384
	C183.575,49.905,179.528,52.867,175.102,52.867L175.102,52.867z"/>
<path fill="#55e8a9" class="tge-logo" d="M136.782,145.039c-16.578,0-30.064-13.486-30.064-30.063s13.487-30.063,30.064-30.063
	c16.576,0,30.062,13.486,30.062,30.063S153.358,145.039,136.782,145.039L136.782,145.039z M136.782,104.912
	c-5.55,0-10.064,4.515-10.064,10.063s4.515,10.063,10.064,10.063c5.549,0,10.062-4.515,10.062-10.063
	S142.331,104.912,136.782,104.912L136.782,104.912z"/>
<path fill="#55e8a9" class="tge-logo" d="M241.454,124.976c-2.923,0-5.82-1.275-7.795-3.729c-0.522-0.642-36.914-44.553-96.878-44.553
	c-60.448,0-96.509,44.092-96.866,44.538c-3.456,4.309-9.749,5.001-14.058,1.544c-4.309-3.455-5-9.749-1.545-14.058
	c1.704-2.124,42.528-52.025,112.468-52.025c69.941,0,110.765,49.901,112.468,52.026c3.456,4.308,2.764,10.602-1.544,14.057
	C245.859,124.257,243.649,124.976,241.454,124.976L241.454,124.976z"/>
<path fill="#55e8a9" class="tge-logo" d="M136.781,48.347c-5.523,0-10-4.477-10-10V10c0-5.523,4.477-10,10-10c5.522,0,10,4.477,10,10v28.347
	C146.781,43.87,142.304,48.347,136.781,48.347L136.781,48.347z"/>
<path fill="#55e8a9" class="tge-logo" d="M29.2,88.396c-2.699,0-5.389-1.086-7.361-3.229L2.641,64.304c-3.739-4.064-3.477-10.39,0.588-14.13
	c4.064-3.739,10.39-3.477,14.13,0.588l19.197,20.863c3.739,4.064,3.477,10.39-0.588,14.129C34.047,87.522,31.62,88.396,29.2,88.396
	L29.2,88.396z"/>
<path fill="#55e8a9" class="tge-logo" d="M62.191,66.567c-3.455,0-6.815-1.792-8.667-4.999L39.261,36.886c-2.763-4.782-1.127-10.898,3.655-13.661
	c4.78-2.764,10.898-1.126,13.661,3.655L70.84,51.562c2.763,4.782,1.127,10.898-3.655,13.661
	C65.609,66.134,63.889,66.567,62.191,66.567L62.191,66.567z"/>
<path fill="#55e8a9" class="tge-logo" d="M98.461,52.867c-4.427,0-8.474-2.962-9.661-7.443L81.552,18.04c-1.414-5.339,1.769-10.813,7.108-12.226
	c5.342-1.414,10.813,1.77,12.226,7.108l7.249,27.384c1.414,5.339-1.769,10.813-7.108,12.226
	C100.169,52.758,99.308,52.867,98.461,52.867L98.461,52.867z"/>
</svg>
